<?xml version="1.0" encoding="utf-8"?>
<!-- Generator: Adobe Illustrator 23.0.6, SVG Export Plug-In . SVG Version: 6.00 Build 0)  -->
<svg version="1.1" id="Calque_1" xmlns="http://www.w3.org/2000/svg" xmlns:xlink="http://www.w3.org/1999/xlink" x="0px" y="0px"
	 viewBox="0 0 261 226" style="enable-background:new 0 0 261 226;" xml:space="preserve">
<style type="text/css">
	.st0{fill:#1BAF45;}
	.st1{display:none;fill:#1BAF45;}
</style>
<path class="st0" d="M129.2,215.5L129.2,215.5c0,2.3,1.9,4.2,4.2,4.2l118.7,0c2.3,0,4.2-1.9,4.2-4.2l0,0c0-2.3-1.9-4.2-4.2-4.2
	H133.3C131,211.4,129.2,213.2,129.2,215.5z"/>
<path class="st0" d="M251.2,93L251.2,93c-2.8,0-5.1,2.3-5.1,5.1v116.6c0,2.8,2.3,5.1,5.1,5.1l0,0c2.8,0,5.1-2.3,5.1-5.1V98.1
	C256.2,95.3,254,93,251.2,93z"/>
<path class="st0" d="M141.1,4.1c-2.5-2-6.3-1.7-8.5,0.7c-2.1,2.3-1.8,5.8,0.7,7.7l115.1,88.4c1.7,1.3,4.2,1.3,6,0
	c2.3-1.7,2.4-4.9,0.2-6.6L141.1,4.1z"/>
<path class="st0" d="M19.6,102c-2.5,1.9-6.3,1.6-8.5-0.8c-2.1-2.4-1.7-5.8,0.8-7.7L133.3,3.9c1.7-1.3,4.2-1.2,6,0.1
	c2.3,1.7,2.3,4.9,0.1,6.6L19.6,102z"/>
<path class="st1" d="M18.7,117.4c27.8,1.3,53.3,12.4,72,31.3c18.7,18.9,28.2,43.3,26.7,68.6c-0.1,1.4-1.4,2.4-2.8,2.3
	c-1.5-0.1-2.6-1.2-2.6-2.6c1.4-24-7.6-47.1-25.3-65c-17.7-17.9-41.9-28.5-68.2-29.7c-0.7,0-1.4-0.3-1.9-0.8
	c-0.5-0.5-0.7-1.1-0.7-1.8C16,118.4,17.2,117.4,18.7,117.4z"/>
<path class="st1" d="M94.9,216.3c-0.1,1.4-1.4,2.4-2.8,2.3c-0.7,0-1.4-0.3-1.9-0.8c-0.5-0.5-0.7-1.1-0.7-1.8
	c2.2-38.3-30.2-71.1-72.2-73.1c-1.5-0.1-2.6-1.2-2.6-2.6c0.1-1.4,1.3-2.4,2.8-2.3C62.5,140.1,97.3,175.2,94.9,216.3z"/>
<path class="st0" d="M57.3,176.3c10.6,10.7,16,24.5,15.2,38.9c-0.1,1.4-1.4,2.4-2.8,2.3c-1.5-0.1-2.6-1.2-2.6-2.6
	c0.7-13.1-4.2-25.6-13.8-35.3c-9.6-9.7-22.8-15.5-37.1-16.1c-0.7,0-1.4-0.3-1.9-0.8c-0.5-0.5-0.7-1.1-0.7-1.8
	c0.1-1.4,1.4-2.4,2.8-2.3C32.2,159.3,46.7,165.6,57.3,176.3z"/>
<path class="st0" d="M38.3,192c6.6,6.6,6,16.9-1.3,22.9s-18.5,5.5-25.1-1.2c-6.6-6.6-6-16.9,1.3-22.9
	C20.5,184.8,31.7,185.3,38.3,192z M15.9,210.4c4.6,4.6,12.4,5,17.4,0.8c5.1-4.2,5.5-11.3,0.9-15.9c-4.6-4.6-12.4-5-17.4-0.8
	C11.8,198.6,11.4,205.8,15.9,210.4z"/>
</svg>
